<?xml version="1.0" encoding="UTF-8"?>
<svg id="Layer_1" data-name="Layer 1" xmlns="http://www.w3.org/2000/svg" viewBox="0 0 864.92 285.25">
  <defs>
    <style>
      .cls-1 {
        stroke-width: 0px;
      }

      .cls-1, .cls-2, .cls-3 {
        fill: #020202;
      }

      .cls-2 {
        font-family: TimesNewRomanPS-BoldItalicMT, 'Times New Roman';
        font-size: 38.84px;
        font-style: italic;
        font-weight: 700;
      }

      .cls-3 {
        font-family: TimesNewRomanPSMT, 'Times New Roman';
        font-size: 31.07px;
      }
    </style>
  </defs>
  <path class="cls-1" d="M322.78,104.38c-.03,4.82-3.63,8.45-8.41,8.47-4.51.02-8.59-3.99-8.61-8.47-.02-4.46,4.11-8.55,8.57-8.5,4.76.06,8.48,3.8,8.45,8.49Z"/>
  <path class="cls-1" d="M447.71,199.3c-9.42,0-18.83-.03-28.25,0-4.68.02-8.66-1.73-12.21-4.62-1.22-.99-2.22-2.18-2.77-3.67-.21-.57-.45-1.27.15-1.72.62-.47,1.19-.08,1.59.44,3.4,4.44,8.12,5.11,13.32,5.07,17.38-.12,34.76-.06,52.15-.06,4.31,0,8.39.8,12.16,3.1,1.5.92,2.35,3.22,4.02,3.02,1.39-.17,2.29-2.19,3.72-3.08,3.55-2.19,7.41-3.05,11.54-3.05,17.49.02,34.97.02,52.46.02,1.65,0,3.32.04,4.96-.15,3.31-.38,6.13-1.77,8.24-4.43.5-.63,1-1.65,1.93-1.05,1.04.66.37,1.67-.05,2.48-.92,1.78-2.25,3.2-3.93,4.31-3.46,2.27-7.21,3.43-11.4,3.42-16.97-.06-33.94-.03-50.91-.02-2.07,0-4.15-.08-6.21.07-3.52.25-6.62,1.35-8.78,4.47-1.4,2.02-2.06,2.01-3.46.08-2.42-3.34-5.83-4.55-9.7-4.58-9.52-.08-19.04-.03-28.56-.03Z"/>
  <path class="cls-1" d="M529.44,179.84c.02,1.12-1.03,2.15-2.19,2.04-1.16-.11-1.88-.76-1.94-1.96-.06-1.12,1.04-2.13,2.18-2.07,1.02.05,1.93.98,1.95,1.99Z"/>
  <path class="cls-1" d="M516.2,177.89c1.12.24,1.83.9,1.88,2.06.06,1.12-1.13,2.08-2.28,1.86-1.15-.21-1.84-.94-1.7-2.13.13-1.15.93-1.73,2.09-1.8Z"/>
  <path class="cls-1" d="M504.64,177.91c1.06.14,1.86.73,1.9,1.93.04,1.23-.74,1.89-1.92,1.91-1.2.02-1.91-.66-1.97-1.88-.06-1.08.86-1.98,2-1.97Z"/>
  <path class="cls-1" d="M488.51,104.11c-.03,4.82-3.63,8.45-8.41,8.47-4.51.02-8.59-3.99-8.61-8.47-.02-4.46,4.11-8.55,8.57-8.5,4.76.06,8.48,3.8,8.45,8.49Z"/>
  <text class="cls-2" transform="translate(478.66 229.89)"><tspan x="0" y="0">I</tspan></text>
  <text class="cls-3" transform="translate(452.52 70.24)"><tspan x="0" y="0">node</tspan></text>
  <text class="cls-3" transform="translate(293.66 69.27)"><tspan x="0" y="0">leaf</tspan></text>
  <rect class="cls-1" x="520.91" y="83.94" width="2.13" height="116.79" rx="1.06" ry="1.06" transform="translate(973.21 -156.16) rotate(131.26)"/>
  <rect class="cls-1" x="447.37" y="92.91" width="2.13" height="99.13" rx="1.06" ry="1.06" transform="translate(699.98 540.12) rotate(-139.94)"/>
  <rect class="cls-1" x="472.93" y="104" width="2.13" height="77.72" rx="1.06" ry="1.06" transform="translate(918.98 359.81) rotate(-170.78)"/>
</svg>