<?xml version="1.0" encoding="UTF-8" standalone="no"?>
<svg
   id="Layer_1"
   data-name="Layer 1"
   viewBox="0 0 868.59 334.78"
   version="1.1"
   sodipodi:docname="Fig-02.svg"
   inkscape:version="1.4.2 (ebf0e940d0, 2025-05-08)"
   xmlns:inkscape="http://www.inkscape.org/namespaces/inkscape"
   xmlns:sodipodi="http://sodipodi.sourceforge.net/DTD/sodipodi-0.dtd"
   xmlns="http://www.w3.org/2000/svg"
   xmlns:svg="http://www.w3.org/2000/svg">
  <sodipodi:namedview
     id="namedview24"
     pagecolor="#ffffff"
     bordercolor="#000000"
     borderopacity="0.25"
     inkscape:showpageshadow="2"
     inkscape:pageopacity="0.0"
     inkscape:pagecheckerboard="0"
     inkscape:deskcolor="#d1d1d1"
     inkscape:zoom="2.8284271"
     inkscape:cx="420.72853"
     inkscape:cy="139.83037"
     inkscape:window-width="1920"
     inkscape:window-height="2114"
     inkscape:window-x="0"
     inkscape:window-y="0"
     inkscape:window-maximized="0"
     inkscape:current-layer="Layer_1" />
  <defs
     id="defs1">
    <style
       id="style1">
      .cls-1 {
        stroke-width: 0px;
      }

      .cls-1, .cls-2, .cls-3, .cls-4, .cls-5 {
        fill: #020202;
      }

      .cls-2 {
        font-size: 36.89px;
      }

      .cls-2, .cls-3, .cls-4, .cls-5 {
        font-family: TimesNewRomanPS-ItalicMT, 'Times New Roman';
        font-style: italic;
      }

      .cls-3 {
        font-size: 33.05px;
      }

      .cls-4 {
        font-size: 36.12px;
      }

      .cls-5 {
        font-size: 36px;
      }
    </style>
  </defs>
  <text
     class="cls-2"
     id="text1"
     x="174.61317"
     y="228.14284"><tspan
       x="174.61317"
       y="228.14284"
       id="tspan1">s</tspan></text>
  <text
     class="cls-2"
     id="text2"
     x="238.95964"
     y="228.16084"><tspan
       x="238.95964"
       y="228.16084"
       id="tspan2">t</tspan></text>
  <text
     class="cls-2"
     id="text3"
     x="303.44019"
     y="228.16084"><tspan
       x="303.44019"
       y="228.16084"
       id="tspan3">u</tspan></text>
  <text
     class="cls-2"
     id="text4"
     x="546.19153"
     y="224.31"><tspan
       x="546.19153"
       y="224.31"
       id="tspan4">u</tspan></text>
  <text
     class="cls-2"
     id="text5"
     x="608.90167"
     y="224.29199"><tspan
       x="608.90167"
       y="224.29199"
       id="tspan5">s</tspan></text>
  <text
     class="cls-2"
     id="text6"
     x="670.03857"
     y="226.19608"><tspan
       x="670.03857"
       y="226.19608"
       id="tspan6">t</tspan></text>
  <g
     id="g6">
    <rect
       class="cls-1"
       x="332.27"
       y="155.05"
       width="188.46"
       height="2.81"
       id="rect6" />
    <polygon
       class="cls-1"
       points="509.92 156.66 507.73 144.3 535.64 157.7 506.08 168.61 509.92 156.66"
       id="polygon6" />
  </g>
  <text
     class="cls-5"
     transform="translate(352.85,78.26)"
     id="text7"><tspan
       x="0"
       y="0"
       id="tspan7">I = {1, 2, 3}</tspan></text>
  <text
     class="cls-3"
     transform="translate(387.55 138.89)"
     id="text10"><tspan
       x="0"
       y="0"
       xml:space="preserve"
       id="tspan10"> : I    I</tspan></text>
  <path
     class="cls-1"
     d="M373.02,126.22c.47-1.43,1.03-2.79,1.94-3.98.65-.85,1.52-1.32,2.58-1.48.5-.08,1-.09,1.5-.09,4.29,0,8.59,0,12.88,0,.23,0,.27.07.27.28-.01.76-.01,1.52,0,2.29,0,.21-.06.25-.26.25-1.36,0-2.72,0-4.08,0-.35,0-.34,0-.39.34-.1.74-.22,1.47-.29,2.21-.06.61-.12,1.22-.16,1.83-.08,1-.12,2.01-.15,3.01-.01.45-.05.9-.03,1.34.03.73.1,1.46.43,2.14.3.6.76,1.03,1.39,1.2.76.21,1.66.02,2.25-.73.32-.4.47-.85.57-1.34.02-.11.05-.13.15-.13.11,0,.22.02.32,0,.24-.04.25.1.23.27-.15.86-.28,1.72-.59,2.54-.47,1.25-1.24,2.2-2.55,2.61-1.08.34-2.04.09-2.87-.68-.71-.65-1.04-1.48-1.22-2.4-.15-.77-.22-1.54-.26-2.32-.02-.43-.05-.86-.03-1.29.03-.87.07-1.75.15-2.62.05-.55.09-1.11.14-1.66.05-.58.13-1.16.19-1.75.06-.55.1-1.11.15-1.66.02-.25.06-.49.1-.74.02-.12,0-.19-.16-.19-1.55,0-3.1,0-4.65,0-.13,0-.16.04-.16.16-.02.63-.05,1.26-.1,1.89-.05.68-.1,1.37-.15,2.05-.06.78-.13,1.56-.19,2.34-.05.62-.11,1.25-.2,1.87-.18,1.38-.33,2.77-.69,4.12-.23.85-.54,1.68-1.11,2.36-.64.76-1.68.92-2.45.19-.39-.37-.5-.87-.45-1.43.08-.8.58-1.38,1.02-1.98.8-1.08,1.37-2.26,1.71-3.57.23-.88.37-1.77.53-2.66.08-.45.11-.91.15-1.36.07-.61.13-1.23.2-1.84.02-.2,0-.4.03-.61.05-.48.05-.96.07-1.44,0-.09-.04-.11-.12-.1-.87,0-1.74-.06-2.57.3-.34.15-.63.37-.9.62-.51.46-.95.99-1.29,1.59-.11.2-.24.29-.47.26-.14-.02-.28,0-.44,0Z"
     id="path10" />
  <g
     id="g13"
     transform="translate(-4.1876311,-2.6172694)">
    <path
       class="cls-1"
       d="m 451.42,128.69 c -1.3,-0.04 -2.66,-0.65 -3.91,-1.55 -0.79,-0.57 -1.52,-1.21 -2.27,-1.82 -1.87,-1.53 -4.23,-1.28 -5.08,0.94 -0.11,0.3 -0.29,0.58 -0.45,0.86 -0.28,0.49 -0.66,0.93 -1.27,0.73 -0.77,-0.26 -0.75,-0.96 -0.65,-1.62 0.49,-3.33 3.77,-5.35 6.99,-4.32 1.04,0.34 1.97,0.87 2.79,1.59 0.57,0.5 1.12,1.03 1.74,1.45 2.4,1.62 4.04,1.23 5.51,-1.31 0.31,-0.54 0.46,-1.38 1.26,-1.21 0.97,0.2 0.88,1.12 0.81,1.86 -0.24,2.44 -2.57,4.39 -5.48,4.4 z"
       id="path11" />
    <path
       class="cls-1"
       d="m 447.81,130.84 c 2.36,0 4.72,-0.01 7.08,0 0.76,0 1.63,0.07 1.68,1.07 0.05,1 -0.82,1.21 -1.57,1.22 -5.04,0.03 -10.09,0.03 -15.13,0 -0.74,0 -1.59,-0.24 -1.53,-1.24 0.05,-0.79 0.82,-0.87 1.44,-1.03 1.29,-0.33 2.56,0.04 3.84,0.07 1.39,0.03 2.79,0 4.18,0 0,-0.03 0,-0.06 0,-0.09 z"
       id="path12" />
    <path
       class="cls-1"
       d="m 447.21,138.52 c -2.47,0 -4.94,0.02 -7.41,-0.01 -0.65,0 -1.41,-0.19 -1.38,-1 0.03,-0.75 0.75,-1.01 1.41,-1.04 1.5,-0.07 3,-0.1 4.51,-0.1 3.54,0.01 7.09,0.03 10.63,0.1 0.73,0.02 1.63,0.19 1.5,1.23 -0.1,0.81 -0.91,0.83 -1.53,0.84 -2.58,0.03 -5.16,0.01 -7.73,0.01 0,-0.01 0,-0.03 0,-0.04 z"
       id="path13" />
  </g>
  <path
     class="cls-1"
     d="m 622.23503,114.06241 c -0.015,2.41 -1.815,4.225 -4.205,4.235 -2.255,0.01 -4.295,-1.995 -4.305,-4.235 -0.01,-2.23 2.055,-4.275 4.285,-4.25 2.38,0.03 4.24,1.9 4.225,4.245 z"
     id="path14" />
  <path
     class="cls-1"
     d="m 622.23503,188.71241 c -0.015,2.41 -1.815,4.225 -4.205,4.235 -2.255,0.01 -4.295,-1.995 -4.305,-4.235 -0.01,-2.23 2.055,-4.275 4.285,-4.25 2.38,0.03 4.24,1.9 4.225,4.245 z"
     id="path15" />
  <path
     class="cls-1"
     d="m 559.38503,188.71241 c -0.015,2.41 -1.815,4.225 -4.205,4.235 -2.255,0.01 -4.295,-1.995 -4.305,-4.235 -0.01,-2.23 2.055,-4.275 4.285,-4.25 2.38,0.03 4.24,1.9 4.225,4.245 z"
     id="path16"
     sodipodi:nodetypes="scscss" />
  <path
     class="cls-1"
     d="m 683.25503,188.71241 c -0.015,2.41 -1.815,4.225 -4.205,4.235 -2.255,0.01 -4.295,-1.995 -4.305,-4.235 -0.01,-2.23 2.055,-4.275 4.285,-4.25 2.38,0.03 4.24,1.9 4.225,4.245 z"
     id="path17" />
  <g
     id="g24">
    <path
       class="cls-1"
       d="m 252.07503,114.06241 c -0.015,2.41 -1.815,4.225 -4.205,4.235 -2.255,0.01 -4.295,-1.995 -4.305,-4.235 -0.01,-2.23 2.055,-4.275 4.285,-4.25 2.38,0.03 4.24,1.9 4.225,4.245 z"
       id="path19"
       sodipodi:nodetypes="cccccc" />
    <path
       class="cls-1"
       d="m 252.07503,188.71241 c -0.015,2.41 -1.815,4.225 -4.205,4.235 -2.255,0.01 -4.295,-1.995 -4.305,-4.235 -0.01,-2.23 2.055,-4.275 4.285,-4.25 2.38,0.03 4.24,1.9 4.225,4.245 z"
       id="path20" />
    <path
       class="cls-1"
       d="m 189.22503,188.71241 c -0.015,2.41 -1.815,4.225 -4.205,4.235 -2.255,0.01 -4.295,-1.995 -4.305,-4.235 -0.01,-2.23 2.055,-4.275 4.285,-4.25 2.38,0.03 4.24,1.9 4.225,4.245 z"
       id="path21" />
    <path
       class="cls-1"
       d="m 313.08503,188.71241 c -0.015,2.41 -1.815,4.225 -4.205,4.235 -2.255,0.01 -4.295,-1.995 -4.305,-4.235 -0.01,-2.23 2.055,-4.275 4.285,-4.25 2.38,0.03 4.24,1.9 4.225,4.245 z"
       id="path22" />
    <path
       style="fill:#000000;stroke:#000000;stroke-opacity:1"
       d="m 555.13006,188.70482 62.85,-74.65 v 74.65 -74.65 l 61.02,74.65 -61.02,-74.65"
       id="path24" />
    <path
       style="fill:#000000;stroke:#000000;stroke-opacity:1"
       d="m 184.97006,188.70482 62.85,-74.65 v 74.65 -74.65 l 61.01,74.65 -61.01,-74.65"
       id="path25" />
  </g>
  <text
     xml:space="preserve"
     style="font-style:normal;font-variant:normal;font-weight:normal;font-stretch:normal;font-family:times;-inkscape-font-specification:times;text-align:start;writing-mode:lr-tb;direction:ltr;text-anchor:start;fill:#000000;stroke:#000000;stroke-opacity:1"
     x="201.56065"
     y="153.304"
     id="text25"><tspan
       sodipodi:role="line"
       id="tspan25"
       x="201.56065"
       y="153.304">1</tspan></text>
  <text
     xml:space="preserve"
     style="font-style:normal;font-variant:normal;font-weight:normal;font-stretch:normal;font-family:times;-inkscape-font-specification:times;text-align:start;writing-mode:lr-tb;direction:ltr;text-anchor:start;fill:#000000;stroke:#000000;stroke-opacity:1"
     x="237.25"
     y="157.86"
     id="text26"><tspan
       sodipodi:role="line"
       id="tspan26"
       x="237.25"
       y="157.86">2</tspan></text>
  <text
     xml:space="preserve"
     style="font-style:normal;font-variant:normal;font-weight:normal;font-stretch:normal;font-family:times;-inkscape-font-specification:times;text-align:start;writing-mode:lr-tb;direction:ltr;text-anchor:start;fill:#000000;stroke:#000000;stroke-opacity:1"
     x="284.75"
     y="150.83987"
     id="text27"><tspan
       sodipodi:role="line"
       id="tspan27"
       x="284.75"
       y="150.83987">3</tspan></text>
  <text
     xml:space="preserve"
     style="font-style:normal;font-variant:normal;font-weight:normal;font-stretch:normal;font-family:times;-inkscape-font-specification:times;text-align:start;writing-mode:lr-tb;direction:ltr;text-anchor:start;fill:#000000;stroke:#000000;stroke-opacity:1"
     x="619.72797"
     y="160.511"
     id="text28"><tspan
       sodipodi:role="line"
       id="tspan28"
       x="619.72797"
       y="160.511">1</tspan></text>
  <text
     xml:space="preserve"
     style="font-style:normal;font-variant:normal;font-weight:normal;font-stretch:normal;font-family:times;-inkscape-font-specification:times;text-align:start;writing-mode:lr-tb;direction:ltr;text-anchor:start;fill:#000000;stroke:#000000;stroke-opacity:1"
     x="575.25"
     y="152.25"
     id="text29"><tspan
       sodipodi:role="line"
       id="tspan29"
       x="575.25"
       y="152.25">3</tspan></text>
  <text
     xml:space="preserve"
     style="font-style:normal;font-variant:normal;font-weight:normal;font-stretch:normal;font-family:times;-inkscape-font-specification:times;text-align:start;writing-mode:lr-tb;direction:ltr;text-anchor:start;fill:#000000;stroke:#000000;stroke-opacity:1"
     x="652.25"
     y="150.33998"
     id="text30"><tspan
       sodipodi:role="line"
       id="tspan30"
       x="652.25"
       y="150.33998">2</tspan></text>
</svg>
