<?xml version="1.0" encoding="UTF-8"?>
<svg id="Layer_1" data-name="Layer 1" xmlns="http://www.w3.org/2000/svg" viewBox="0 0 868.59 334.78">
  <defs>
    <style>
      .cls-1 {
        stroke-width: 0px;
      }

      .cls-1, .cls-2, .cls-3, .cls-4, .cls-5 {
        fill: #020202;
      }

      .cls-2 {
        font-size: 36.89px;
      }

      .cls-2, .cls-3, .cls-4, .cls-5 {
        font-family: TimesNewRomanPS-ItalicMT, 'Times New Roman';
        font-style: italic;
      }

      .cls-3 {
        font-size: 33.05px;
      }

      .cls-4 {
        font-size: 36.12px;
      }

      .cls-5 {
        font-size: 36px;
      }
    </style>
  </defs>
  <text class="cls-2" transform="translate(168.07 220.64)"><tspan x="0" y="0">a</tspan></text>
  <text class="cls-2" transform="translate(240.53 229.79)"><tspan x="0" y="0">b</tspan></text>
  <text class="cls-2" transform="translate(312.54 219.04)"><tspan x="0" y="0">c</tspan></text>
  <text class="cls-2" transform="translate(538.14 224.31)"><tspan x="0" y="0">c</tspan></text>
  <text class="cls-2" transform="translate(609.48 227.24)"><tspan x="0" y="0">a</tspan></text>
  <text class="cls-2" transform="translate(682.07 229.79)"><tspan x="0" y="0">b</tspan></text>
  <g>
    <rect class="cls-1" x="332.27" y="155.05" width="188.46" height="2.81"/>
    <polygon class="cls-1" points="509.92 156.66 507.73 144.3 535.64 157.7 506.08 168.61 509.92 156.66"/>
  </g>
  <text class="cls-5" transform="translate(352.85 78.26)"><tspan x="0" y="0">I = {a,b,c}</tspan></text>
  <g>
    <text class="cls-4" transform="translate(292.72 275.36)"><tspan x="0" y="0" xml:space="preserve">(a   c, b   a, c   b)</tspan></text>
    <polygon class="cls-1" points="344.86 262.05 344.01 262.83 347.3 266.44 331.68 266.44 331.68 263.49 330.52 263.49 330.52 267.6 330.52 271.7 331.68 271.7 331.68 268.75 347.3 268.75 344.01 272.37 344.86 273.14 349.91 267.6 344.86 262.05"/>
    <polygon class="cls-1" points="430.48 262.05 429.62 262.83 432.92 266.44 417.29 266.44 417.29 263.49 416.14 263.49 416.14 267.6 416.14 271.7 417.29 271.7 417.29 268.75 432.92 268.75 429.62 272.37 430.48 273.14 435.52 267.6 430.48 262.05"/>
    <polygon class="cls-1" points="517.09 262.05 516.24 262.83 519.53 266.44 503.91 266.44 503.91 263.49 502.75 263.49 502.75 267.6 502.75 271.7 503.91 271.7 503.91 268.75 519.53 268.75 516.24 272.37 517.09 273.14 522.14 267.6 517.09 262.05"/>
  </g>
  <text class="cls-3" transform="translate(387.55 138.89)"><tspan x="0" y="0" xml:space="preserve"> : I    I</tspan></text>
  <path class="cls-1" d="M373.02,126.22c.47-1.43,1.03-2.79,1.94-3.98.65-.85,1.52-1.32,2.58-1.48.5-.08,1-.09,1.5-.09,4.29,0,8.59,0,12.88,0,.23,0,.27.07.27.28-.01.76-.01,1.52,0,2.29,0,.21-.06.25-.26.25-1.36,0-2.72,0-4.08,0-.35,0-.34,0-.39.34-.1.74-.22,1.47-.29,2.21-.06.61-.12,1.22-.16,1.83-.08,1-.12,2.01-.15,3.01-.01.45-.05.9-.03,1.34.03.73.1,1.46.43,2.14.3.6.76,1.03,1.39,1.2.76.21,1.66.02,2.25-.73.32-.4.47-.85.57-1.34.02-.11.05-.13.15-.13.11,0,.22.02.32,0,.24-.04.25.1.23.27-.15.86-.28,1.72-.59,2.54-.47,1.25-1.24,2.2-2.55,2.61-1.08.34-2.04.09-2.87-.68-.71-.65-1.04-1.48-1.22-2.4-.15-.77-.22-1.54-.26-2.32-.02-.43-.05-.86-.03-1.29.03-.87.07-1.75.15-2.62.05-.55.09-1.11.14-1.66.05-.58.13-1.16.19-1.75.06-.55.1-1.11.15-1.66.02-.25.06-.49.1-.74.02-.12,0-.19-.16-.19-1.55,0-3.1,0-4.65,0-.13,0-.16.04-.16.16-.02.63-.05,1.26-.1,1.89-.05.68-.1,1.37-.15,2.05-.06.78-.13,1.56-.19,2.34-.05.62-.11,1.25-.2,1.87-.18,1.38-.33,2.77-.69,4.12-.23.85-.54,1.68-1.11,2.36-.64.76-1.68.92-2.45.19-.39-.37-.5-.87-.45-1.43.08-.8.58-1.38,1.02-1.98.8-1.08,1.37-2.26,1.71-3.57.23-.88.37-1.77.53-2.66.08-.45.11-.91.15-1.36.07-.61.13-1.23.2-1.84.02-.2,0-.4.03-.61.05-.48.05-.96.07-1.44,0-.09-.04-.11-.12-.1-.87,0-1.74-.06-2.57.3-.34.15-.63.37-.9.62-.51.46-.95.99-1.29,1.59-.11.2-.24.29-.47.26-.14-.02-.28,0-.44,0Z"/>
  <g>
    <path class="cls-1" d="M451.42,128.69c-1.3-.04-2.66-.65-3.91-1.55-.79-.57-1.52-1.21-2.27-1.82-1.87-1.53-4.23-1.28-5.08.94-.11.3-.29.58-.45.86-.28.49-.66.93-1.27.73-.77-.26-.75-.96-.65-1.62.49-3.33,3.77-5.35,6.99-4.32,1.04.34,1.97.87,2.79,1.59.57.5,1.12,1.03,1.74,1.45,2.4,1.62,4.04,1.23,5.51-1.31.31-.54.46-1.38,1.26-1.21.97.2.88,1.12.81,1.86-.24,2.44-2.57,4.39-5.48,4.4Z"/>
    <path class="cls-1" d="M447.81,130.84c2.36,0,4.72-.01,7.08,0,.76,0,1.63.07,1.68,1.07.05,1-.82,1.21-1.57,1.22-5.04.03-10.09.03-15.13,0-.74,0-1.59-.24-1.53-1.24.05-.79.82-.87,1.44-1.03,1.29-.33,2.56.04,3.84.07,1.39.03,2.79,0,4.18,0,0-.03,0-.06,0-.09Z"/>
    <path class="cls-1" d="M447.21,138.52c-2.47,0-4.94.02-7.41-.01-.65,0-1.41-.19-1.38-1,.03-.75.75-1.01,1.41-1.04,1.5-.07,3-.1,4.51-.1,3.54.01,7.09.03,10.63.1.73.02,1.63.19,1.5,1.23-.1.81-.91.83-1.53.84-2.58.03-5.16.01-7.73.01,0-.01,0-.03,0-.04Z"/>
  </g>
  <path class="cls-1" d="M626.49,114.07c-.03,4.82-3.63,8.45-8.41,8.47-4.51.02-8.59-3.99-8.61-8.47-.02-4.46,4.11-8.55,8.57-8.5,4.76.06,8.48,3.8,8.45,8.49Z"/>
  <path class="cls-1" d="M626.49,188.72c-.03,4.82-3.63,8.45-8.41,8.47-4.51.02-8.59-3.99-8.61-8.47-.02-4.46,4.11-8.55,8.57-8.5,4.76.06,8.48,3.8,8.45,8.49Z"/>
  <path class="cls-1" d="M563.64,188.72c-.03,4.82-3.63,8.45-8.41,8.47-4.51.02-8.59-3.99-8.61-8.47-.02-4.46,4.11-8.55,8.57-8.5,4.76.06,8.48,3.8,8.45,8.49Z"/>
  <path class="cls-1" d="M687.51,188.72c-.03,4.82-3.63,8.45-8.41,8.47-4.51.02-8.59-3.99-8.61-8.47-.02-4.46,4.11-8.55,8.57-8.5,4.76.06,8.48,3.8,8.45,8.49Z"/>
  <rect class="cls-1" x="586.35" y="100.12" width="2.13" height="99.13" rx="1.06" ry="1.06" transform="translate(940.69 642.29) rotate(-139.94)"/>
  <rect class="cls-1" x="616.92" y="111.21" width="2.13" height="77.5" rx="1.06" ry="1.06" transform="translate(1235.98 299.92) rotate(180)"/>
  <rect class="cls-1" x="646.26" y="101.47" width="2.13" height="99.13" rx="1.06" ry="1.06" transform="translate(1232.63 -164.03) rotate(138.57)"/>
  <g>
    <path class="cls-1" d="M256.33,114.07c-.03,4.82-3.63,8.45-8.41,8.47-4.51.02-8.59-3.99-8.61-8.47-.02-4.46,4.11-8.55,8.57-8.5,4.76.06,8.48,3.8,8.45,8.49Z"/>
    <path class="cls-1" d="M256.33,188.72c-.03,4.82-3.63,8.45-8.41,8.47-4.51.02-8.59-3.99-8.61-8.47-.02-4.46,4.11-8.55,8.57-8.5,4.76.06,8.48,3.8,8.45,8.49Z"/>
    <path class="cls-1" d="M193.48,188.72c-.03,4.82-3.63,8.45-8.41,8.47-4.51.02-8.59-3.99-8.61-8.47-.02-4.46,4.11-8.55,8.57-8.5,4.76.06,8.48,3.8,8.45,8.49Z"/>
    <path class="cls-1" d="M317.34,188.72c-.03,4.82-3.63,8.45-8.41,8.47-4.51.02-8.59-3.99-8.61-8.47-.02-4.46,4.11-8.55,8.57-8.5,4.76.06,8.48,3.8,8.45,8.49Z"/>
    <rect class="cls-1" x="216.19" y="100.12" width="2.13" height="99.13" rx="1.06" ry="1.06" transform="translate(287.21 404.07) rotate(-139.94)"/>
    <rect class="cls-1" x="246.76" y="111.21" width="2.13" height="77.5" rx="1.06" ry="1.06" transform="translate(495.65 299.92) rotate(-180)"/>
    <rect class="cls-1" x="276.1" y="101.47" width="2.13" height="99.13" rx="1.06" ry="1.06" transform="translate(584.91 80.9) rotate(138.57)"/>
  </g>
</svg>