<?xml version="1.0" encoding="UTF-8" standalone="no"?>
<svg
   id="Layer_1"
   data-name="Layer 1"
   viewBox="0 0 864.92 285.25"
   version="1.1"
   sodipodi:docname="Fig-01.svg"
   inkscape:version="1.4.2 (ebf0e940d0, 2025-05-08)"
   xmlns:inkscape="http://www.inkscape.org/namespaces/inkscape"
   xmlns:sodipodi="http://sodipodi.sourceforge.net/DTD/sodipodi-0.dtd"
   xmlns="http://www.w3.org/2000/svg"
   xmlns:svg="http://www.w3.org/2000/svg">
  <sodipodi:namedview
     id="namedview10"
     pagecolor="#ffffff"
     bordercolor="#000000"
     borderopacity="0.25"
     inkscape:showpageshadow="2"
     inkscape:pageopacity="0.0"
     inkscape:pagecheckerboard="0"
     inkscape:deskcolor="#d1d1d1"
     inkscape:zoom="4"
     inkscape:cx="558.125"
     inkscape:cy="204.375"
     inkscape:window-width="1920"
     inkscape:window-height="2114"
     inkscape:window-x="0"
     inkscape:window-y="0"
     inkscape:window-maximized="0"
     inkscape:current-layer="Layer_1" />
  <defs
     id="defs1">
    <style
       id="style1">
      .cls-1 {
        stroke-width: 0px;
      }

      .cls-1, .cls-2, .cls-3 {
        fill: #020202;
      }

      .cls-2 {
        font-family: TimesNewRomanPS-BoldItalicMT, 'Times New Roman';
        font-size: 38.84px;
        font-style: italic;
        font-weight: 700;
      }

      .cls-3 {
        font-family: TimesNewRomanPSMT, 'Times New Roman';
        font-size: 31.07px;
      }
    </style>
  </defs>
  <path
     class="cls-1"
     d="m 281.08063,105.50929 c -0.03,4.82 -3.63,8.45 -8.41,8.47 -4.51,0.02 -8.59,-3.99 -8.61,-8.47 -0.02,-4.46 4.11,-8.549996 8.57,-8.499996 4.76,0.06 8.48,3.799996 8.45,8.489996 z"
     id="path1" />
  <path
     class="cls-1"
     d="m 505.53977,233.70198 c -15.69154,0 -31.36642,-0.03 -47.05796,0 -7.7958,0.02 -14.42556,-1.73 -20.33904,-4.62 -2.03224,-0.99 -3.69801,-2.18 -4.61418,-3.67 -0.34981,-0.57 -0.74959,-1.27 0.24987,-1.72 1.03277,-0.47 1.98226,-0.08 2.64857,0.44 5.66361,4.44 13.52604,5.11 22.18804,5.07 28.95106,-0.12 57.90212,-0.06 86.86983,-0.06 7.17946,0 13.9758,0.8 20.25575,3.1 2.49865,0.92 3.91455,3.22 6.69639,3.02 2.31542,-0.17 3.81461,-2.19 6.19666,-3.08 5.91348,-2.19 12.34334,-3.05 19.22297,-3.05 29.13429,0.02 58.25193,0.02 87.38622,0.02 2.74852,0 5.53035,0.04 8.26221,-0.15 5.5137,-0.38 10.21116,-1.77 13.72593,-4.43 0.83289,-0.63 1.66577,-1.65 3.21494,-1.05 1.7324,0.66 0.61633,1.67 -0.0833,2.48 -1.53251,1.78 -3.74798,3.2 -6.54647,4.31 -5.76356,2.27 -12.01019,3.43 -18.98976,3.42 -28.2681,-0.06 -56.53619,-0.03 -84.80428,-0.02 -3.44814,0 -6.91294,-0.08 -10.34443,0.07 -5.8635,0.25 -11.02739,1.35 -14.62545,4.47 -2.33207,2.02 -3.43148,2.01 -5.76355,0.08 -4.03116,-3.34 -9.71144,-4.55 -16.15796,-4.58 -15.85812,-0.08 -31.71624,-0.03 -47.57435,-0.03 z"
     id="path2" />
  <text
     class="cls-2"
     id="text6"
     x="563.58997"
     y="270.89438"><tspan
       x="563.58997"
       y="270.89438"
       id="tspan6">I</tspan></text>
  <text
     class="cls-3"
     id="text7"
     x="536.26624"
     y="70.239998"><tspan
       x="536.26624"
       y="70.239998"
       id="tspan7">node</tspan></text>
  <text
     class="cls-3"
     id="text8"
     x="251.96063"
     y="70.399292"><tspan
       x="251.96063"
       y="70.399292"
       id="tspan8">leaf</tspan></text>
  <g
     id="g24"
     transform="translate(315.92624,-9.9600058)">
    <path
       class="cls-1"
       d="m 252.07503,114.06241 c -0.015,2.41 -1.815,4.225 -4.205,4.235 -2.255,0.01 -4.295,-1.995 -4.305,-4.235 -0.01,-2.23 2.055,-4.275 4.285,-4.25 2.38,0.03 4.24,1.9 4.225,4.245 z"
       id="path19"
       sodipodi:nodetypes="cccccc"
       style="fill:#020202;stroke-width:0px" />
    <path
       class="cls-1"
       d="m 238.07503,188.71241 c -0.015,2.41 -1.815,4.225 -4.205,4.235 -2.255,0.01 -4.295,-1.995 -4.305,-4.235 -0.01,-2.23 2.055,-4.275 4.285,-4.25 2.38,0.03 4.24,1.9 4.225,4.245 z"
       id="path20"
       style="fill:#020202;stroke-width:0px" />
    <path
       class="cls-1"
       d="m 189.22503,188.71241 c -0.015,2.41 -1.815,4.225 -4.205,4.235 -2.255,0.01 -4.295,-1.995 -4.305,-4.235 -0.01,-2.23 2.055,-4.275 4.285,-4.25 2.38,0.03 4.24,1.9 4.225,4.245 z"
       id="path21"
       style="fill:#020202;stroke-width:0px" />
    <path
       class="cls-1"
       d="m 376.58503,188.71241 c -0.015,2.41 -1.815,4.225 -4.205,4.235 -2.255,0.01 -4.295,-1.995 -4.305,-4.235 -0.01,-2.23 2.055,-4.275 4.285,-4.25 2.38,0.03 4.24,1.9 4.225,4.245 z"
       id="path22"
       style="fill:#020202;stroke-width:0px" />
    <path
       style="fill:#000000;stroke:#000000;stroke-opacity:1"
       d="m 184.97006,188.70482 62.85,-74.65 -14,74.65 14,-74.65 124.51,74.65 -124.51,-74.65"
       id="path25"
       sodipodi:nodetypes="cccccc" />
    <path
       class="cls-1"
       d="m 139.81527,188.71241 c -0.015,2.41 -1.815,4.225 -4.205,4.235 -2.255,0.01 -4.295,-1.995 -4.305,-4.235 -0.01,-2.23 2.055,-4.275 4.285,-4.25 2.38,0.03 4.24,1.9 4.225,4.245 z"
       id="path21-3"
       style="fill:#020202;stroke-width:0px" />
    <path
       style="fill:#cacaca;fill-opacity:1;stroke:#000000"
       d="m 135.5603,188.70482 112.25976,-74.65"
       id="path10" />
    <path
       class="cls-1"
       d="m 281.97245,180.52565 c -0.006,0.95864 -0.72196,1.68061 -1.67264,1.68458 -0.89699,0.004 -1.70845,-0.79356 -1.71243,-1.68458 -0.004,-0.88704 0.81743,-1.70049 1.70447,-1.69055 0.94671,0.0119 1.68657,0.75578 1.6806,1.68856 z"
       id="path20-2"
       style="fill:#020202;stroke-width:0px" />
    <path
       class="cls-1"
       d="m 293.95884,180.52565 c -0.006,0.95864 -0.72196,1.68061 -1.67264,1.68458 -0.89699,0.004 -1.70845,-0.79356 -1.71243,-1.68458 -0.004,-0.88704 0.81743,-1.70049 1.70447,-1.69055 0.94671,0.0119 1.68657,0.75578 1.6806,1.68856 z"
       id="path20-2-2"
       style="fill:#020202;stroke-width:0px" />
    <path
       class="cls-1"
       d="m 293.95884,180.52565 c -0.006,0.95864 -0.72196,1.68061 -1.67264,1.68458 -0.89699,0.004 -1.70845,-0.79356 -1.71243,-1.68458 -0.004,-0.88704 0.81743,-1.70049 1.70447,-1.69055 0.94671,0.0119 1.68657,0.75578 1.6806,1.68856 z"
       id="path20-2-9"
       style="fill:#020202;stroke-width:0px" />
    <path
       class="cls-1"
       d="m 305.94523,180.52565 c -0.006,0.95864 -0.72196,1.68061 -1.67264,1.68458 -0.89699,0.004 -1.70845,-0.79356 -1.71243,-1.68458 -0.004,-0.88704 0.81743,-1.70049 1.70447,-1.69055 0.94671,0.0119 1.68657,0.75578 1.6806,1.68856 z"
       id="path20-2-2-3"
       style="fill:#020202;stroke-width:0px" />
  </g>
  <text
     xml:space="preserve"
     style="font-style:normal;font-variant:normal;font-weight:normal;font-stretch:normal;font-size:37.3333px;font-family:TimesNewRomanPSMT, 'Times New Roman';-inkscape-font-specification:'TimesNewRomanPSMT, Times New Roman, ';text-align:start;writing-mode:lr-tb;direction:ltr;text-anchor:start;fill:#000000;fill-opacity:1;stroke:none"
     x="443.48148"
     y="209.5"
     id="text10"><tspan
       sodipodi:role="line"
       id="tspan10"
       x="443.48148"
       y="209.5">t</tspan></text>
</svg>
